<?xml version="1.0" encoding="utf-8" ?>
<svg xmlns="http://www.w3.org/2000/svg" xmlns:xlink="http://www.w3.org/1999/xlink" width="1727" height="1727">
	<g>
		<path fill="#FDFDFD" transform="scale(1.68637 1.68637)" d="M140.468 905.686C136.797 902.396 133.351 898.82 129.978 895.227Q128.609 893.785 127.295 892.292Q125.982 890.798 124.726 889.256Q123.471 887.714 122.275 886.125Q121.079 884.536 119.945 882.902Q118.811 881.269 117.739 879.593Q116.668 877.918 115.662 876.202Q114.655 874.487 113.715 872.735Q112.775 870.982 111.902 869.195Q111.029 867.409 110.225 865.589Q109.421 863.771 108.687 861.922Q107.954 860.074 107.291 858.199Q106.628 856.324 106.037 854.425Q105.446 852.526 104.928 850.606Q104.41 848.686 103.965 846.748Q103.521 844.809 103.151 842.856Q102.78 840.902 102.485 838.935C101.01 828.894 101.486 818.561 101.49 808.436L101.443 768.936L101.364 622.463L101.339 348.94L101.02 245.801C101.002 229.451 100.482 212.932 101.065 196.6Q101.103 195.374 101.171 194.149Q101.239 192.924 101.337 191.701Q101.436 190.478 101.565 189.258Q101.693 188.038 101.852 186.822Q102.011 185.605 102.2 184.393Q102.389 183.181 102.608 181.974Q102.827 180.767 103.075 179.565Q103.324 178.364 103.603 177.169Q103.881 175.974 104.189 174.787Q104.497 173.599 104.834 172.42Q105.172 171.24 105.538 170.07Q105.904 168.899 106.3 167.737Q106.695 166.576 107.119 165.425Q107.543 164.274 107.995 163.133Q108.447 161.993 108.928 160.864Q109.408 159.735 109.916 158.619Q110.425 157.502 110.96 156.398Q111.496 155.295 112.059 154.205Q112.622 153.115 113.212 152.039Q113.801 150.963 114.418 149.902Q115.034 148.841 115.676 147.796Q116.318 146.751 116.986 145.722Q117.654 144.693 118.348 143.681Q119.041 142.669 119.759 141.674Q120.477 140.679 121.22 139.703Q121.962 138.726 122.729 137.768Q123.495 136.81 124.285 135.872Q125.075 134.933 125.888 134.015Q126.701 133.096 127.537 132.197Q128.372 131.299 129.23 130.422Q130.087 129.544 130.966 128.689Q131.845 127.833 132.745 126.999C146.974 113.781 165.919 104.351 185.211 101.658C196.297 100.111 207.641 100.559 218.807 100.563L265.134 100.623L419.63 100.87L679.837 100.878L778.439 100.956C796.613 100.979 815.028 100.41 833.178 101.205C861.695 102.453 883.817 115.829 902.707 136.458C911.083 151.421 918.595 162.777 921.504 180.322C923.601 192.976 922.857 206.772 922.912 219.584L922.99 283.418L923.089 511.102L923.144 739.447L923.154 800.052C923.153 815.283 924.202 831.348 921.229 846.326Q920.89 848.093 920.486 849.846Q920.082 851.599 919.613 853.336Q919.143 855.073 918.61 856.791Q918.076 858.509 917.479 860.206Q916.881 861.903 916.221 863.577Q915.561 865.25 914.839 866.898Q914.117 868.546 913.334 870.165Q912.551 871.785 911.708 873.375Q910.865 874.964 909.964 876.521Q909.062 878.078 908.103 879.6Q907.145 881.123 906.13 882.608Q905.115 884.094 904.045 885.54Q902.976 886.987 901.853 888.392Q900.73 889.798 899.556 891.161Q898.381 892.524 897.157 893.842Q895.933 895.16 894.66 896.432C878.313 912.854 857.209 923.718 834.018 925.917C821.586 927.096 808.703 926.475 796.209 926.454L517.441 926.168L291.984 925.993L228.172 926.019C212.87 926.019 196.938 926.96 181.831 924.25C171.01 922.308 160.697 917.466 151.237 912.012C147.773 910.015 144.485 907.678 140.904 905.898L140.468 905.686Z"/>
		<defs>
			<linearGradient id="gradient_0" gradientUnits="userSpaceOnUse" x1="540.64221" y1="923.2818" x2="481.9306" y2="81.24942">
				<stop offset="0" stop-color="#A31C1B"/>
				<stop offset="1" stop-color="#E72029"/>
			</linearGradient>
		</defs>
		<path fill="url(#gradient_0)" transform="scale(1.68637 1.68637)" d="M140.468 905.686C136.797 902.396 133.351 898.82 129.978 895.227Q128.609 893.785 127.295 892.292Q125.982 890.798 124.726 889.256Q123.471 887.714 122.275 886.125Q121.079 884.536 119.945 882.902Q118.811 881.269 117.739 879.593Q116.668 877.918 115.662 876.202Q114.655 874.487 113.715 872.735Q112.775 870.982 111.902 869.195Q111.029 867.409 110.225 865.589Q109.421 863.771 108.687 861.922Q107.954 860.074 107.291 858.199Q106.628 856.324 106.037 854.425Q105.446 852.526 104.928 850.606Q104.41 848.686 103.965 846.748Q103.521 844.809 103.151 842.856Q102.78 840.902 102.485 838.935C101.01 828.894 101.486 818.561 101.49 808.436L101.443 768.936L101.364 622.463L101.339 348.94L101.02 245.801C101.002 229.451 100.482 212.932 101.065 196.6Q101.103 195.374 101.171 194.149Q101.239 192.924 101.337 191.701Q101.436 190.478 101.565 189.258Q101.693 188.038 101.852 186.822Q102.011 185.605 102.2 184.393Q102.389 183.181 102.608 181.974Q102.827 180.767 103.075 179.565Q103.324 178.364 103.603 177.169Q103.881 175.974 104.189 174.787Q104.497 173.599 104.834 172.42Q105.172 171.24 105.538 170.07Q105.904 168.899 106.3 167.737Q106.695 166.576 107.119 165.425Q107.543 164.274 107.995 163.133Q108.447 161.993 108.928 160.864Q109.408 159.735 109.916 158.619Q110.425 157.502 110.96 156.398Q111.496 155.295 112.059 154.205Q112.622 153.115 113.212 152.039Q113.801 150.963 114.418 149.902Q115.034 148.841 115.676 147.796Q116.318 146.751 116.986 145.722Q117.654 144.693 118.348 143.681Q119.041 142.669 119.759 141.674Q120.477 140.679 121.22 139.703Q121.962 138.726 122.729 137.768Q123.495 136.81 124.285 135.872Q125.075 134.933 125.888 134.015Q126.701 133.096 127.537 132.197Q128.372 131.299 129.23 130.422Q130.087 129.544 130.966 128.689Q131.845 127.833 132.745 126.999C146.974 113.781 165.919 104.351 185.211 101.658C196.297 100.111 207.641 100.559 218.807 100.563L265.134 100.623L419.63 100.87L679.837 100.878L778.439 100.956C796.613 100.979 815.028 100.41 833.178 101.205C861.695 102.453 883.817 115.829 902.707 136.458C911.083 151.421 918.595 162.777 921.504 180.322C923.601 192.976 922.857 206.772 922.912 219.584L922.99 283.418L923.089 511.102C887.037 511.168 850.568 510.414 814.56 511.683Q814.56 507.994 814.47 504.307Q814.379 500.62 814.197 496.936Q814.014 493.252 813.741 489.573Q813.468 485.895 813.103 482.225Q812.739 478.554 812.284 474.894Q811.828 471.233 811.283 467.586Q810.737 463.938 810.101 460.304Q809.465 456.671 808.739 453.055Q808.013 449.438 807.198 445.841Q806.383 442.244 805.479 438.668Q804.575 435.092 803.582 431.539Q802.59 427.987 801.51 424.46Q800.43 420.933 799.263 417.434Q798.096 413.935 796.842 410.466Q795.589 406.997 794.25 403.56Q792.911 400.123 791.487 396.72Q790.064 393.318 788.556 389.951Q787.049 386.585 785.458 383.257Q783.868 379.929 782.195 376.641Q780.523 373.354 778.77 370.109Q777.016 366.864 775.183 363.663Q773.35 360.462 771.438 357.308Q769.526 354.154 767.536 351.048Q765.547 347.942 763.481 344.886Q761.415 341.83 759.274 338.827Q757.133 335.823 754.919 332.873Q752.704 329.924 750.417 327.03Q748.13 324.136 745.772 321.3Q743.414 318.463 740.986 315.686Q738.559 312.909 736.063 310.193Q733.567 307.477 731.005 304.823Q728.443 302.17 725.816 299.581Q723.179 296.964 720.479 294.412Q717.778 291.861 715.016 289.376Q712.254 286.891 709.432 284.475Q706.61 282.058 703.73 279.711Q700.849 277.365 697.913 275.089Q694.976 272.814 691.984 270.611Q688.992 268.408 685.947 266.28Q682.903 264.151 679.807 262.097Q676.711 260.043 673.565 258.066Q670.42 256.089 667.227 254.189Q664.034 252.289 660.796 250.468Q657.557 248.647 654.275 246.906Q650.993 245.165 647.67 243.505Q644.346 241.845 640.983 240.266Q637.619 238.688 634.219 237.192Q630.818 235.697 627.381 234.285Q623.944 232.873 620.474 231.546Q617.004 230.219 613.503 228.977Q610.001 227.735 606.47 226.579Q602.939 225.423 599.381 224.354Q595.823 223.285 592.24 222.304Q588.657 221.322 585.051 220.429Q581.444 219.535 577.817 218.73Q574.19 217.925 570.545 217.209Q566.899 216.493 563.237 215.867Q559.575 215.241 555.899 214.704Q552.223 214.167 548.534 213.721Q544.846 213.275 541.148 212.919Q537.45 212.563 533.744 212.297Q530.038 212.032 526.327 211.857Q522.616 211.683 518.902 211.599Q515.187 211.516 511.472 211.523C432.796 211.766 352.907 243.684 297.299 299.74C238.103 359.412 208.906 432.264 209.381 516.104Q209.412 519.699 209.531 523.293Q209.649 526.887 209.856 530.477Q210.063 534.066 210.358 537.65Q210.652 541.234 211.035 544.809Q211.417 548.384 211.887 551.949Q212.357 555.514 212.914 559.066Q213.471 562.619 214.115 566.156Q214.759 569.694 215.49 573.214Q216.22 576.735 217.037 580.237Q217.853 583.739 218.756 587.219Q219.658 590.7 220.645 594.157Q221.632 597.615 222.703 601.047Q223.775 604.48 224.93 607.885Q226.086 611.29 227.324 614.665Q228.562 618.041 229.883 621.385Q231.204 624.73 232.606 628.041Q234.008 631.352 235.491 634.627Q236.974 637.903 238.537 641.141Q240.1 644.38 241.742 647.579Q243.383 650.778 245.103 653.936Q246.822 657.094 248.619 660.208Q250.415 663.323 252.288 666.393Q254.16 669.463 256.107 672.486Q258.053 675.509 260.074 678.483Q262.094 681.458 264.187 684.382Q266.279 687.306 268.443 690.177Q270.607 693.049 272.84 695.867Q275.073 698.685 277.375 701.448Q279.677 704.21 282.046 706.915Q284.414 709.621 286.849 712.267Q289.283 714.913 291.781 717.499Q294.28 720.085 296.841 722.609Q299.542 725.305 302.31 727.933Q305.077 730.562 307.908 733.12Q310.74 735.679 313.634 738.167Q316.529 740.655 319.484 743.07Q322.439 745.485 325.453 747.827Q328.467 750.168 331.538 752.433Q334.609 754.699 337.736 756.888Q340.862 759.077 344.042 761.187Q347.222 763.298 350.453 765.329Q353.684 767.36 356.965 769.31Q360.245 771.261 363.573 773.129Q366.901 774.997 370.274 776.782Q373.648 778.568 377.064 780.268Q380.481 781.969 383.938 783.585Q387.396 785.201 390.892 786.73Q394.389 788.26 397.923 789.702Q401.456 791.144 405.024 792.498Q408.593 793.852 412.193 795.118Q415.794 796.383 419.425 797.558Q423.056 798.734 426.715 799.819Q430.374 800.904 434.059 801.898Q437.744 802.892 441.452 803.794Q445.16 804.696 448.89 805.506Q452.619 806.316 456.368 807.033Q460.116 807.75 463.882 808.375Q467.647 808.998 471.426 809.529Q475.206 810.059 478.997 810.496Q482.789 810.932 486.59 811.275Q490.391 811.617 494.199 811.865Q498.008 812.113 501.821 812.266Q505.635 812.419 509.451 812.478Q513.267 812.537 517.083 812.501L517.441 926.168L291.984 925.993L228.172 926.019C212.87 926.019 196.938 926.96 181.831 924.25C171.01 922.308 160.697 917.466 151.237 912.012C147.773 910.015 144.485 907.678 140.904 905.898L140.468 905.686Z"/>
		<path fill="#232226" transform="scale(1.68637 1.68637)" d="M814.56 511.683C850.568 510.414 887.037 511.168 923.089 511.102L923.144 739.447L923.154 800.052C923.153 815.283 924.202 831.348 921.229 846.326Q920.89 848.093 920.486 849.846Q920.082 851.599 919.613 853.336Q919.143 855.073 918.61 856.791Q918.076 858.509 917.479 860.206Q916.881 861.903 916.221 863.577Q915.561 865.25 914.839 866.898Q914.117 868.546 913.334 870.165Q912.551 871.785 911.708 873.375Q910.865 874.964 909.964 876.521Q909.062 878.078 908.103 879.6Q907.145 881.123 906.13 882.608Q905.115 884.094 904.045 885.54Q902.976 886.987 901.853 888.392Q900.73 889.798 899.556 891.161Q898.381 892.524 897.157 893.842Q895.933 895.16 894.66 896.432C878.313 912.854 857.209 923.718 834.018 925.917C821.586 927.096 808.703 926.475 796.209 926.454L517.441 926.168L517.083 812.501Q520.763 812.444 524.44 812.298Q528.117 812.152 531.79 811.917Q535.462 811.682 539.128 811.358Q542.794 811.034 546.451 810.622Q550.108 810.209 553.754 809.708Q557.4 809.208 561.032 808.619Q564.665 808.03 568.282 807.354Q571.9 806.677 575.5 805.913Q579.1 805.149 582.68 804.299Q586.261 803.448 589.819 802.511Q593.378 801.574 596.913 800.551Q600.448 799.528 603.958 798.42Q607.467 797.312 610.948 796.119Q614.43 794.927 617.882 793.65Q621.333 792.374 624.753 791.014Q628.173 789.654 631.558 788.212Q634.944 786.77 638.294 785.247Q641.644 783.723 644.956 782.119Q648.268 780.515 651.541 778.831Q654.813 777.148 658.044 775.385Q661.274 773.623 664.461 771.783Q667.648 769.943 670.79 768.026Q673.932 766.109 677.026 764.117Q680.12 762.125 683.166 760.059Q686.211 757.993 689.205 755.853Q692.2 753.714 695.141 751.503Q698.083 749.292 700.97 747.01Q703.858 744.728 706.689 742.377Q709.52 740.026 712.294 737.607Q715.068 735.189 717.782 732.704Q720.496 730.219 723.15 727.669Q725.803 725.119 728.394 722.505Q730.977 719.921 733.496 717.273Q736.014 714.625 738.466 711.916Q740.918 709.207 743.302 706.437Q745.686 703.668 748 700.84Q750.315 698.012 752.558 695.128Q754.802 692.244 756.973 689.305Q759.144 686.365 761.242 683.373Q763.34 680.381 765.362 677.338Q767.385 674.295 769.332 671.202Q771.278 668.11 773.147 664.97Q775.016 661.83 776.807 658.645Q778.598 655.459 780.309 652.231Q782.02 649.002 783.65 645.732Q785.281 642.461 786.829 639.152Q788.378 635.842 789.844 632.495Q791.31 629.148 792.692 625.765Q794.075 622.383 795.373 618.967Q796.671 615.551 797.884 612.104Q799.097 608.657 800.224 605.181Q801.351 601.705 802.391 598.202Q803.431 594.699 804.384 591.171Q805.337 587.644 806.203 584.094Q807.068 580.543 807.845 576.973Q808.621 573.402 809.309 569.813Q809.997 566.225 810.596 562.62Q811.194 559.015 811.703 555.396Q812.212 551.778 812.631 548.148Q813.05 544.518 813.379 540.879Q813.708 537.239 813.946 533.593Q814.184 529.947 814.332 526.295Q814.48 522.644 814.537 518.991Q814.594 515.337 814.56 511.683Z"/>
		<path fill="#232226" transform="scale(1.68637 1.68637)" d="M233.7 449.948C239.116 428.463 246.163 407.566 255.922 387.644Q258.183 383.13 260.601 378.698Q263.019 374.266 265.591 369.921Q268.163 365.577 270.886 361.325Q273.609 357.074 276.48 352.921Q279.351 348.768 282.366 344.719Q285.381 340.669 288.537 336.728Q291.693 332.787 294.985 328.959Q298.277 325.131 301.701 321.421Q305.126 317.712 308.678 314.125Q312.231 310.537 315.908 307.077Q319.585 303.617 323.381 300.289Q327.176 296.96 331.087 293.767Q334.998 290.573 339.018 287.519Q343.038 284.465 347.164 281.555Q351.289 278.644 355.514 275.88Q359.739 273.116 364.058 270.502Q375.301 263.777 387.145 258.175Q398.988 252.573 411.319 248.148C448.456 234.415 481.545 229.838 521.048 230.068L520.939 417.541L609.787 417.337Q609.981 405.946 609.796 394.555Q645.595 395.214 681.4 394.993Q681.026 406.102 681.1 417.216C705.889 417.086 730.752 417.539 755.523 417.076C753.23 409.551 750.827 402.037 748.891 394.411Q715.278 394.181 681.665 394.533Q681.673 369.674 681.42 344.816C681.364 337.454 680.976 329.995 681.294 322.648L687.769 322.553L684.512 314.495C683.013 317.321 681.834 320.044 680.819 323.077L609.588 323.189C609.63 346.861 610.545 370.685 609.529 394.334L541.929 394.607Q542.225 358.594 542.028 322.581L609.712 323.061L609.46 257.269Q575.684 256.919 541.907 257.268C541.929 248.573 541.852 239.865 542.012 231.171Q545.491 231.538 548.961 231.989Q552.43 232.44 555.888 232.976Q559.345 233.512 562.788 234.132Q566.231 234.752 569.659 235.456Q573.086 236.16 576.495 236.947Q579.904 237.734 583.292 238.604Q586.681 239.474 590.047 240.426Q593.414 241.379 596.756 242.413Q600.099 243.447 603.415 244.562Q606.731 245.678 610.019 246.874Q613.307 248.069 616.564 249.345Q619.822 250.621 623.048 251.976Q626.273 253.33 629.465 254.763Q632.657 256.197 635.813 257.707Q638.968 259.217 642.086 260.804Q645.204 262.391 648.283 264.054Q651.361 265.716 654.398 267.453Q657.435 269.19 660.429 271.001Q663.422 272.812 666.371 274.695Q669.32 276.578 672.222 278.532Q675.124 280.486 677.977 282.511Q680.83 284.536 683.633 286.629Q686.436 288.723 689.188 290.884Q691.939 293.045 694.637 295.273Q697.334 297.501 699.977 299.794Q702.62 302.086 705.205 304.443Q707.791 306.8 710.319 309.219Q712.847 311.637 715.315 314.117Q717.782 316.597 720.189 319.136Q722.596 321.676 724.94 324.273Q727.284 326.87 729.564 329.524Q731.844 332.178 734.059 334.886C753.656 359.083 770.363 388.915 780.681 418.272C784.428 428.932 787.132 439.851 790.124 450.735Q790.893 454.076 791.581 457.434Q792.268 460.793 792.872 464.167Q793.476 467.542 793.998 470.93Q794.519 474.318 794.957 477.719Q795.394 481.119 795.748 484.529Q796.102 487.938 796.372 491.356Q796.642 494.773 796.828 498.197Q797.014 501.62 797.116 505.046Q797.218 508.473 797.235 511.901Q797.253 515.329 797.186 518.757Q797.119 522.184 796.968 525.609Q796.817 529.034 796.581 532.454Q796.346 535.874 796.027 539.287Q795.708 542.701 795.304 546.105Q794.901 549.509 794.415 552.903Q793.928 556.296 793.358 559.677Q792.788 563.057 792.135 566.423Q791.482 569.788 790.747 573.136Q790.011 576.485 789.194 579.814Q788.376 583.143 787.477 586.451Q786.578 589.76 785.597 593.045Q784.617 596.33 783.557 599.589Q782.496 602.849 781.355 606.082Q780.215 609.315 778.995 612.519Q777.775 615.723 776.477 618.896Q775.179 622.069 773.803 625.209Q772.428 628.349 770.975 631.454Q769.523 634.559 767.994 637.628Q766.466 640.696 764.862 643.726Q763.259 646.757 761.582 649.746Q759.904 652.736 758.154 655.684Q756.403 658.631 754.581 661.535Q752.667 664.539 750.68 667.496Q748.693 670.452 746.634 673.359Q744.574 676.266 742.444 679.12Q740.314 681.975 738.114 684.777Q735.914 687.579 733.645 690.325Q731.377 693.072 729.042 695.762Q726.707 698.452 724.306 701.083Q721.905 703.715 719.44 706.286Q716.975 708.858 714.447 711.368Q711.92 713.878 709.331 716.325Q706.742 718.772 704.094 721.155Q701.446 723.537 698.74 725.854Q696.034 728.17 693.272 730.419Q690.51 732.669 687.693 734.849Q684.876 737.03 682.006 739.14Q679.137 741.25 676.216 743.29Q673.295 745.329 670.325 747.295Q667.355 749.262 664.337 751.155Q661.319 753.047 658.256 754.865Q655.192 756.683 652.085 758.425Q648.978 760.167 645.829 761.832Q642.68 763.496 639.49 765.083Q636.301 766.67 633.074 768.177Q629.846 769.685 626.583 771.113Q623.319 772.54 620.021 773.887Q616.724 775.234 613.394 776.499Q610.064 777.765 606.704 778.947Q603.344 780.13 599.955 781.23Q596.567 782.329 593.153 783.345Q589.739 784.361 586.3 785.293Q582.862 786.224 579.402 787.071Q575.942 787.917 572.462 788.678C562.232 790.985 551.864 792.396 541.475 793.775L541.472 774.266C555.197 772.097 568.738 768.793 582.265 765.643C591.581 763.474 601.183 761.583 610.297 758.698L609.97 712.495L541.515 712.559L541.535 641.758L610.375 641.484C610.081 634.743 610.312 627.932 610.362 621.183L551.551 621.338C541.784 621.341 530.609 622.195 520.988 620.696C520.472 626.572 520.909 632.824 520.973 638.75Q521.25 656.336 521.303 673.924L521.027 794.808C476.683 795.255 434.839 787.124 394.218 769.16C330.581 741.017 273.07 683.123 247.802 617.961C225.686 561.947 222.196 508.934 233.7 449.948Z"/>
		<path fill="#D21E24" transform="scale(1.68637 1.68637)" d="M233.7 449.948C239.116 428.463 246.163 407.566 255.922 387.644Q258.183 383.13 260.601 378.698Q263.019 374.266 265.591 369.921Q268.163 365.577 270.886 361.325Q273.609 357.074 276.48 352.921Q279.351 348.768 282.366 344.719Q285.381 340.669 288.537 336.728Q291.693 332.787 294.985 328.959Q298.277 325.131 301.701 321.421Q305.126 317.712 308.678 314.125Q312.231 310.537 315.908 307.077Q319.585 303.617 323.381 300.289Q327.176 296.96 331.087 293.767Q334.998 290.573 339.018 287.519Q343.038 284.465 347.164 281.555Q351.289 278.644 355.514 275.88Q359.739 273.116 364.058 270.502Q375.301 263.777 387.145 258.175Q398.988 252.573 411.319 248.148C448.456 234.415 481.545 229.838 521.048 230.068L520.939 417.541L609.787 417.337Q609.981 405.946 609.796 394.555Q645.595 395.214 681.4 394.993Q681.026 406.102 681.1 417.216C705.889 417.086 730.752 417.539 755.523 417.076C753.23 409.551 750.827 402.037 748.891 394.411Q715.278 394.181 681.665 394.533Q681.673 369.674 681.42 344.816C681.364 337.454 680.976 329.995 681.294 322.648L687.769 322.553L684.512 314.495C683.013 317.321 681.834 320.044 680.819 323.077L609.588 323.189C609.63 346.861 610.545 370.685 609.529 394.334L541.929 394.607Q542.225 358.594 542.028 322.581L609.712 323.061L609.46 257.269Q575.684 256.919 541.907 257.268C541.929 248.573 541.852 239.865 542.012 231.171Q545.491 231.538 548.961 231.989Q552.43 232.44 555.888 232.976Q559.345 233.512 562.788 234.132Q566.231 234.752 569.659 235.456Q573.086 236.16 576.495 236.947Q579.904 237.734 583.292 238.604Q586.681 239.474 590.047 240.426Q593.414 241.379 596.756 242.413Q600.099 243.447 603.415 244.562Q606.731 245.678 610.019 246.874Q613.307 248.069 616.564 249.345Q619.822 250.621 623.048 251.976Q626.273 253.33 629.465 254.763Q632.657 256.197 635.813 257.707Q638.968 259.217 642.086 260.804Q645.204 262.391 648.283 264.054Q651.361 265.716 654.398 267.453Q657.435 269.19 660.429 271.001Q663.422 272.812 666.371 274.695Q669.32 276.578 672.222 278.532Q675.124 280.486 677.977 282.511Q680.83 284.536 683.633 286.629Q686.436 288.723 689.188 290.884Q691.939 293.045 694.637 295.273Q697.334 297.501 699.977 299.794Q702.62 302.086 705.205 304.443Q707.791 306.8 710.319 309.219Q712.847 311.637 715.315 314.117Q717.782 316.597 720.189 319.136Q722.596 321.676 724.94 324.273Q727.284 326.87 729.564 329.524Q731.844 332.178 734.059 334.886C753.656 359.083 770.363 388.915 780.681 418.272C784.428 428.932 787.132 439.851 790.124 450.735C774.938 450.176 759.562 450.669 744.356 450.646L652.113 450.504L392.461 450.266C384.274 451.095 375.219 450.207 366.974 450.088C359.427 449.945 351.864 450.041 344.315 450.04C334.948 450.201 325.56 450.081 316.191 450.088L292.842 450.043C281.554 450.361 270.171 450.072 258.875 450.046L233.7 449.948Z"/>
		<path fill="#FDFDFD" transform="scale(1.68637 1.68637)" d="M471.371 252.523C471.233 252.608 471.096 252.694 470.957 252.776C464.932 256.326 457.617 258.421 451.227 261.361C440.728 266.193 430.52 272.406 420.737 278.543C362.153 315.293 312.199 378.062 294.015 445.209Q293.358 447.609 292.842 450.043C281.554 450.361 270.171 450.072 258.875 450.046C274.583 384.905 314.035 327.662 371.434 292.508C405.42 271.693 433.087 262.451 471.371 252.523Z"/>
		<path fill="#FDFDFD" transform="scale(1.68637 1.68637)" d="M461.662 276.964C452.848 283.924 443.743 290.363 435.376 297.886Q432.174 300.807 429.054 303.816Q425.933 306.824 422.898 309.918Q419.862 313.012 416.913 316.189Q413.965 319.366 411.105 322.623Q408.245 325.88 405.477 329.215Q402.708 332.551 400.033 335.961Q397.358 339.372 394.779 342.855Q392.199 346.338 389.717 349.892Q387.235 353.445 384.852 357.066Q382.47 360.686 380.188 364.372Q377.906 368.057 375.728 371.804Q373.549 375.551 371.475 379.357Q369.401 383.163 367.433 387.025Q365.465 390.887 363.605 394.802Q361.745 398.717 359.994 402.682Q358.243 406.647 356.602 410.659C351.738 422.521 345.82 436.682 344.363 449.46C344.341 449.653 344.331 449.847 344.315 450.04C334.948 450.201 325.56 450.081 316.191 450.088C327.173 405.459 354.6 361.44 387.356 329.474C395.868 321.167 405.182 313.689 414.603 306.448C422.591 300.309 430.724 294.254 439.356 289.042C446.559 284.693 454.008 280.462 461.662 276.964Z"/>
		<path fill="#FDFDFD" transform="scale(1.68637 1.68637)" d="M434.339 334.864C417.918 361.571 404.401 390.569 397.463 421.284C395.296 430.877 394.211 440.608 392.461 450.266C384.274 451.095 375.219 450.207 366.974 450.088C377.237 411.045 402.474 360.675 434.339 334.864Z"/>
		<path fill="#D21E24" transform="scale(1.68637 1.68637)" d="M247.802 617.961L273.96 617.996C280.281 618.044 300.351 617.133 305.5 618.327Q320.693 618.097 335.888 618.204C341.881 618.221 347.953 618.034 353.931 618.456Q365.177 618.739 376.425 618.502C385.364 618.427 394.32 618.236 403.258 618.444L484.343 618.859C495.111 618.967 506.326 618.281 517.032 619.253C518.714 619.405 519.719 619.563 520.988 620.696C520.472 626.572 520.909 632.824 520.973 638.75Q521.25 656.336 521.303 673.924L521.027 794.808C476.683 795.255 434.839 787.124 394.218 769.16C330.581 741.017 273.07 683.123 247.802 617.961Z"/>
		<path fill="#FDFDFD" transform="scale(1.68637 1.68637)" d="M273.96 617.996C280.281 618.044 300.351 617.133 305.5 618.327C326.14 662.856 361.498 707.51 400.621 737.233C417.815 750.297 437.156 761.678 456.288 771.663C448.981 769.865 441.706 767.546 434.596 765.085C361.393 739.745 307.559 687.023 273.96 617.996Z"/>
		<path fill="#FDFDFD" transform="scale(1.68637 1.68637)" d="M376.425 618.502C385.364 618.427 394.32 618.236 403.258 618.444Q405.3 625.597 407.686 632.643Q410.072 639.689 412.797 646.611Q415.521 653.532 418.579 660.314Q421.636 667.095 425.019 673.721Q428.402 680.346 432.102 686.799Q435.802 693.253 439.811 699.519Q443.819 705.785 448.127 711.85Q452.435 717.915 457.032 723.763C463.441 731.907 470.951 739.159 477.564 747.145C428.349 710.538 402.729 673.197 376.425 618.502Z"/>
		<path fill="#FDFDFD" transform="scale(1.68637 1.68637)" d="M335.888 618.204C341.881 618.221 347.953 618.034 353.931 618.456C363.104 647.337 382.721 679.418 400.533 703.872C405.495 710.683 416.981 723.14 420.145 729.615C412.892 722.633 405.078 716.248 397.923 709.164C369.201 680.725 349.327 653.591 329.368 618.415L335.888 618.204Z"/>
		<path fill="#FDFDFD" transform="scale(1.68637 1.68637)" d="M610.375 641.484L681.011 641.523C680.653 650.112 680.956 658.805 680.996 667.405L681.108 712.006L610.49 712.389Q610.629 676.936 610.375 641.484Z"/>
		<path fill="#FDFDFD" transform="scale(1.68637 1.68637)" d="M681.461 621.03L730.977 620.96C738.748 620.938 746.735 620.459 754.479 620.834C752.049 627.838 746.239 635.239 742.243 641.48L704.675 641.499C696.821 641.515 688.851 641.865 681.011 641.523Q681.374 631.28 681.461 621.03Z"/>
		<path fill="#FDFDFD" transform="scale(1.68637 1.68637)" d="M500.72 496.708C497.512 497.211 494.573 497.991 491.518 496.519C490.14 494.897 489.787 493.417 489.924 491.289C490.016 489.848 490.327 488.221 491.467 487.217C495.102 484.019 506.638 484.879 511.188 485.814C512.948 486.175 514.428 486.554 515.484 488.058C514.909 489.188 514.183 489.629 512.914 489.977C512.251 490.159 511.789 490.141 511.096 490.205C509.858 490.32 508.619 490.479 507.382 490.614C505.858 492.053 504.311 493.473 502.851 494.978C507.704 494.054 513.358 492.55 518.331 493.133C526.837 494.131 536.227 499.372 544.096 502.743Q566.966 512.573 589.61 522.914C591.982 523.915 594.297 524.901 596.534 526.187C595.79 527.884 594.808 529.676 594.261 531.434L595.731 532.601C592.14 543.914 592.825 556.127 598.369 566.738C601.131 572.024 605.11 576.565 609.203 580.855C608.661 580.892 607.601 581.071 607.092 580.935C596.292 583.141 578.786 582.042 567.423 582.077L490.267 582.224L409.171 582.52C396.534 582.545 381.688 583.527 369.275 582.316C362.104 588.626 353.749 592.23 344.157 592.706C332.676 593.274 320.422 588.835 311.923 581.103C301.713 571.816 298.529 559.372 297.956 546.037C284.289 545.906 270.608 546.056 256.939 546.078L256.86 574.841C262.621 574.886 284.268 573.411 288.055 576.308L286.152 576.961L286.761 576.872C276.344 578.124 264.928 577.181 254.395 577.161C254.137 569.888 253.353 550.739 254.668 544.509C257.63 541.851 291.901 543.384 298.235 543.429C300.264 533.848 304.01 525.404 310.836 518.238C318.784 509.894 329.502 505.551 340.982 505.387C353.473 505.208 363.484 509.95 372.366 518.532C380.648 516.078 391.376 514.333 399.747 517.313C402.974 518.462 405.511 520.398 408.996 520.942C415.883 522.018 423.015 522.279 429.965 522.893C435.118 523.348 440.274 524.211 445.44 524.428Q454.757 525.272 464.042 526.419C468.65 527.01 473.428 527.973 478.054 528.083C479.992 528.13 481.945 527.913 483.73 527.116C490.782 523.969 494.384 512.873 496.821 506.226C493.591 506.735 490.311 506.973 487.056 507.282C492.483 504.445 495.956 500.366 500.72 496.708Z"/>
		<path fill="#FDFDFD" transform="scale(1.68637 1.68637)" d="M385.181 531.89C403.493 532.138 421.852 534.385 440.054 536.288Q475.276 539.633 510.383 544.019Q540.07 547.467 569.585 552.162C576.942 553.275 585.157 553.72 592.321 555.526C593.426 559.309 594.716 562.913 596.225 566.554L384.958 566.003C385.154 565.545 385.352 565.088 385.529 564.624C389.738 553.621 389.976 542.682 385.181 531.89Z"/>
		<path fill="#D21E24" transform="scale(1.68637 1.68637)" d="M504.817 533.266L505.105 532.831C508.972 526.877 510.059 520.014 517.966 518.35C528.605 516.112 562.363 521.353 575.743 522.411C580.182 522.763 585.199 523.506 589.61 522.914C591.982 523.915 594.297 524.901 596.534 526.187C595.79 527.884 594.808 529.676 594.261 531.434C591.705 539.753 591.497 546.9 592.321 555.526C585.157 553.72 576.942 553.275 569.585 552.162Q540.07 547.467 510.383 544.019Q475.276 539.633 440.054 536.288C421.852 534.385 403.493 532.138 385.181 531.89C382.649 528.265 379.345 523.168 375.303 521.142L375.506 520.6C391.607 518.157 399.441 522.275 414.142 523.672C444.366 526.544 474.74 529.067 504.817 533.266Z"/>
		<defs>
			<linearGradient id="gradient_1" gradientUnits="userSpaceOnUse" x1="489.89948" y1="525.72839" x2="490.79822" y2="581.22791">
				<stop offset="0" stop-color="#050605"/>
				<stop offset="1" stop-color="#27262F"/>
			</linearGradient>
		</defs>
		<path fill="url(#gradient_1)" transform="scale(1.68637 1.68637)" d="M375.303 521.142C379.345 523.168 382.649 528.265 385.181 531.89C389.976 542.682 389.738 553.621 385.529 564.624C385.352 565.088 385.154 565.545 384.958 566.003L596.225 566.554C594.716 562.913 593.426 559.309 592.321 555.526C591.497 546.9 591.705 539.753 594.261 531.434L595.731 532.601C592.14 543.914 592.825 556.127 598.369 566.738C601.131 572.024 605.11 576.565 609.203 580.855C608.661 580.892 607.601 581.071 607.092 580.935C599.172 579.509 588.694 580.568 580.487 580.509Q551.07 580.095 521.65 579.988L427.011 578.985C408.973 578.79 390.575 578.052 372.56 578.942Q373.615 577.842 374.595 576.676Q375.576 575.509 376.477 574.28Q377.378 573.051 378.197 571.766Q379.015 570.48 379.747 569.143Q380.478 567.807 381.12 566.424Q381.762 565.042 382.312 563.621Q382.861 562.199 383.316 560.745Q383.77 559.29 384.128 557.809C387.345 544.012 382.526 532.685 375.303 521.142Z"/>
		<path fill="#232226" transform="scale(1.68637 1.68637)" d="M337.464 508.183Q338.393 508.087 339.326 508.036Q340.258 507.985 341.192 507.978Q342.126 507.971 343.059 508.009Q343.992 508.047 344.923 508.129Q345.853 508.211 346.778 508.337Q347.704 508.463 348.622 508.633Q349.54 508.804 350.449 509.017Q351.359 509.231 352.257 509.488Q353.155 509.745 354.039 510.044Q354.924 510.343 355.793 510.684Q356.663 511.025 357.515 511.407Q358.367 511.789 359.201 512.211Q360.034 512.633 360.846 513.095Q361.658 513.556 362.447 514.055Q363.236 514.555 364 515.091Q364.765 515.628 365.503 516.2C374.212 522.927 380.411 533.183 381.798 544.152C383.226 555.433 379.557 566.168 372.638 575.049C365.536 584.165 356.003 588.965 344.625 590.305Q343.686 590.353 342.747 590.359Q341.807 590.365 340.868 590.33Q339.929 590.294 338.992 590.218Q338.055 590.141 337.123 590.023Q336.191 589.904 335.265 589.745Q334.338 589.586 333.42 589.386Q332.502 589.186 331.593 588.945Q330.685 588.705 329.788 588.424Q328.891 588.144 328.007 587.824Q327.123 587.505 326.255 587.146Q325.386 586.787 324.534 586.391Q323.682 585.994 322.848 585.56Q322.015 585.127 321.201 584.656Q320.387 584.186 319.595 583.68Q318.803 583.174 318.034 582.634Q317.265 582.094 316.521 581.52C307.577 574.729 302.623 564.526 301.153 553.515C299.739 542.924 303.049 531.919 309.553 523.494C316.492 514.505 326.308 509.557 337.464 508.183Z"/>
		<path fill="#D21E24" transform="scale(1.68637 1.68637)" d="M337.801 515.585C345.671 514.911 353.272 516.674 359.889 521.023C367.207 525.832 372.316 532.972 374.045 541.596C375.822 550.462 374.125 559.949 369.014 567.451C363.569 575.443 355.394 580.172 345.986 581.874C337.958 582.409 331.08 581.472 324.174 577.055Q323.464 576.599 322.778 576.107Q322.092 575.616 321.431 575.092Q320.77 574.568 320.136 574.011Q319.502 573.455 318.896 572.867Q318.29 572.28 317.714 571.664Q317.138 571.047 316.593 570.403Q316.049 569.759 315.536 569.088Q315.024 568.418 314.546 567.723Q314.068 567.027 313.624 566.31Q313.181 565.592 312.774 564.853Q312.367 564.114 311.997 563.355Q311.627 562.597 311.295 561.822Q310.962 561.046 310.669 560.255Q310.376 559.464 310.122 558.659Q309.869 557.854 309.655 557.038Q309.442 556.222 309.269 555.396C307.376 546.571 309.441 537.174 314.409 529.681C320.015 521.225 328.142 517.522 337.801 515.585Z"/>
		<path fill="#232226" transform="scale(1.68637 1.68637)" d="M339.756 519.656C345.427 519.204 351.228 520.915 356.035 523.89Q356.653 524.269 357.252 524.678Q357.851 525.087 358.428 525.526Q359.005 525.965 359.56 526.432Q360.115 526.899 360.646 527.393Q361.176 527.887 361.682 528.407Q362.187 528.927 362.665 529.472Q363.144 530.017 363.595 530.585Q364.045 531.153 364.467 531.743Q364.889 532.333 365.281 532.943Q365.672 533.553 366.033 534.182Q366.394 534.811 366.722 535.458Q367.051 536.104 367.347 536.766Q367.643 537.428 367.905 538.104Q368.168 538.78 368.396 539.469Q368.625 540.157 368.818 540.856Q369.012 541.554 369.17 542.262Q369.326 542.949 369.447 543.642Q369.569 544.336 369.656 545.035Q369.743 545.734 369.794 546.436Q369.846 547.138 369.863 547.842Q369.88 548.547 369.862 549.25Q369.844 549.954 369.791 550.657Q369.738 551.359 369.65 552.058Q369.562 552.756 369.439 553.45Q369.316 554.143 369.159 554.83Q369.002 555.516 368.811 556.194Q368.62 556.872 368.396 557.539Q368.171 558.207 367.914 558.862Q367.656 559.518 367.367 560.16Q367.077 560.801 366.756 561.428Q366.434 562.055 366.082 562.665Q365.73 563.274 365.348 563.866C360.325 571.791 353.301 575.482 344.433 577.506C337.418 577.821 331.359 576.413 325.588 572.234C319.177 567.591 314.789 560.086 313.681 552.279Q313.579 551.582 313.513 550.881Q313.446 550.18 313.416 549.476Q313.385 548.772 313.39 548.068Q313.395 547.364 313.435 546.66Q313.476 545.957 313.552 545.257Q313.628 544.557 313.74 543.861Q313.851 543.166 313.998 542.477Q314.145 541.788 314.326 541.108Q314.507 540.427 314.723 539.756Q314.939 539.086 315.188 538.427Q315.437 537.768 315.72 537.123Q316.002 536.478 316.317 535.848Q316.631 535.218 316.978 534.604Q317.324 533.991 317.701 533.396Q318.078 532.801 318.484 532.226Q318.891 531.651 319.326 531.097C324.391 524.558 331.594 520.649 339.756 519.656Z"/>
		<path fill="#FDFDFD" transform="scale(1.68637 1.68637)" d="M338.344 528.627C343.073 528.316 347.423 529.096 351.478 531.673Q351.909 531.944 352.325 532.236Q352.742 532.528 353.144 532.84Q353.546 533.153 353.932 533.484Q354.318 533.816 354.688 534.166Q355.057 534.516 355.408 534.884Q355.76 535.252 356.093 535.636Q356.426 536.021 356.74 536.422Q357.054 536.823 357.348 537.238Q357.641 537.654 357.914 538.083Q358.187 538.513 358.439 538.955Q358.69 539.398 358.919 539.852Q359.149 540.306 359.356 540.771Q359.562 541.236 359.746 541.711Q359.93 542.186 360.09 542.669Q360.25 543.152 360.386 543.642Q360.522 544.133 360.634 544.629Q360.738 545.115 360.819 545.604Q360.899 546.094 360.955 546.588Q361.011 547.081 361.043 547.577Q361.075 548.072 361.083 548.568Q361.091 549.065 361.074 549.561Q361.058 550.057 361.017 550.552Q360.976 551.047 360.911 551.539Q360.846 552.031 360.757 552.52Q360.668 553.008 360.555 553.492Q360.442 553.975 360.306 554.453Q360.17 554.93 360.01 555.4Q359.85 555.871 359.668 556.332Q359.486 556.794 359.281 557.246Q359.076 557.699 358.849 558.141Q358.623 558.582 358.375 559.012Q358.127 559.443 357.858 559.86C354.586 564.986 349.91 567.645 344.121 568.929C340.103 569.312 336.421 568.723 332.815 566.868C327.783 564.279 324.038 559.338 322.524 553.925Q322.387 553.446 322.274 552.96Q322.161 552.474 322.073 551.984Q321.986 551.493 321.923 550.998Q321.86 550.504 321.823 550.006Q321.786 549.509 321.774 549.011Q321.763 548.512 321.776 548.014Q321.79 547.516 321.829 547.018Q321.869 546.521 321.933 546.027Q321.998 545.533 322.087 545.042Q322.177 544.552 322.292 544.067Q322.407 543.581 322.546 543.103Q322.685 542.624 322.849 542.153Q323.013 541.682 323.2 541.22Q323.388 540.758 323.599 540.306Q323.81 539.855 324.043 539.414Q324.277 538.974 324.533 538.546C327.734 533.085 332.419 530.291 338.344 528.627Z"/>
		<path fill="#232226" transform="scale(1.68637 1.68637)" d="M338.683 534.062C340.95 533.899 343.079 533.926 345.261 534.648Q345.97 534.877 346.653 535.177Q347.335 535.477 347.983 535.844Q348.632 536.212 349.239 536.644Q349.847 537.076 350.407 537.567Q350.968 538.058 351.475 538.604Q351.983 539.149 352.432 539.744Q352.882 540.339 353.268 540.976Q353.655 541.613 353.975 542.286C355.651 545.853 355.878 549.863 354.503 553.566C352.687 558.457 349.066 560.926 344.502 562.897C341.496 563.295 338.911 563.317 336.092 562.035Q335.385 561.715 334.715 561.324Q334.045 560.932 333.42 560.472Q332.795 560.012 332.222 559.489Q331.649 558.966 331.133 558.386Q330.618 557.806 330.166 557.175Q329.714 556.544 329.331 555.869Q328.948 555.194 328.638 554.483Q328.328 553.772 328.094 553.032Q327.866 552.344 327.708 551.637Q327.55 550.93 327.463 550.21Q327.376 549.491 327.361 548.766Q327.347 548.042 327.404 547.319Q327.462 546.597 327.591 545.884Q327.72 545.171 327.92 544.474Q328.119 543.778 328.387 543.104Q328.655 542.431 328.989 541.788C331.081 537.709 334.482 535.534 338.683 534.062Z"/>
		<path fill="#D21E24" transform="scale(1.68637 1.68637)" d="M340.724 542.374C341.416 542.362 342.126 542.359 342.805 542.517C344.449 542.9 345.967 544.182 346.688 545.701C347.536 547.487 347.445 549.574 346.695 551.378C345.809 553.508 344.465 554.301 342.431 555.219C342.282 555.203 342.132 555.189 341.983 555.17C339.798 554.897 337.667 554.102 336.398 552.183C335.619 551.005 335.486 549.637 335.738 548.281C336.3 545.252 338.27 543.935 340.724 542.374Z"/>
		<path fill="#FDFDFD" transform="scale(1.68637 1.68637)" d="M635.047 481.195Q661.327 481.215 687.605 480.897C679.918 490.567 670.764 499.987 664.142 510.378C673.729 517.128 680.114 526.76 682.183 538.359C684.362 550.567 681.81 562.392 674.632 572.514Q671.369 577.054 667.31 580.898Q706.008 580.774 744.693 581.804C754.518 582.008 764.423 581.638 774.224 582.212L774.473 582.653C764.167 584.122 750.798 583.357 740.085 583.413C723.039 583.501 706.038 584.12 689.003 584.367C682.331 584.464 675.647 583.898 668.979 584.14C656.69 584.587 651.819 592.608 635.934 591.811C626.682 591.346 618.878 588.123 611.511 582.608Q610.352 581.739 609.203 580.855C605.11 576.565 601.131 572.024 598.369 566.738C592.825 556.127 592.14 543.914 595.731 532.601C599.943 521.147 606.278 512.057 617.562 506.756C620.473 505.389 623.416 504.428 626.506 503.567C629.547 496.168 632.565 488.803 635.047 481.195Z"/>
		<path fill="#232226" transform="scale(1.68637 1.68637)" d="M632.386 504.662Q633.312 504.549 634.243 504.477Q635.173 504.405 636.106 504.374Q637.038 504.343 637.971 504.353Q638.904 504.363 639.836 504.414Q640.768 504.466 641.697 504.558Q642.625 504.65 643.549 504.782Q644.472 504.915 645.389 505.089Q646.306 505.262 647.215 505.475Q648.123 505.689 649.021 505.942Q649.919 506.195 650.805 506.488Q651.692 506.781 652.564 507.112Q653.436 507.443 654.293 507.812Q655.15 508.182 655.99 508.588Q656.83 508.995 657.651 509.438Q658.472 509.881 659.273 510.36Q660.074 510.839 660.853 511.353Q661.731 511.927 662.579 512.543Q663.427 513.16 664.243 513.818Q665.06 514.476 665.842 515.174Q666.625 515.872 667.372 516.608Q668.119 517.344 668.828 518.116Q669.538 518.888 670.208 519.694Q670.878 520.501 671.508 521.339Q672.137 522.178 672.724 523.047Q673.311 523.916 673.853 524.813Q674.396 525.71 674.894 526.634Q675.391 527.557 675.843 528.503Q676.294 529.45 676.697 530.418Q677.1 531.385 677.455 532.372Q677.81 533.359 678.115 534.362Q678.421 535.365 678.676 536.382Q678.931 537.399 679.135 538.428C681.306 549.683 679.318 560.953 672.832 570.45C666.161 580.218 656.691 586.246 645.085 588.406C634.342 589.85 624.277 588.198 615.27 581.93Q614.374 581.312 613.509 580.651Q612.644 579.99 611.814 579.286Q610.983 578.582 610.189 577.838Q609.394 577.094 608.638 576.311Q607.882 575.528 607.165 574.709Q606.449 573.889 605.774 573.035Q605.099 572.18 604.468 571.294Q603.837 570.407 603.25 569.49Q602.664 568.572 602.124 567.627Q601.584 566.682 601.092 565.711Q600.6 564.74 600.157 563.746Q599.714 562.751 599.321 561.736Q598.928 560.721 598.586 559.688Q598.244 558.654 597.954 557.605Q597.664 556.556 597.427 555.493Q597.189 554.431 597.005 553.358Q596.831 552.307 596.708 551.248Q596.586 550.189 596.516 549.126Q596.446 548.062 596.428 546.996Q596.41 545.931 596.445 544.865Q596.48 543.8 596.568 542.738Q596.655 541.676 596.795 540.619Q596.934 539.563 597.126 538.514Q597.317 537.466 597.56 536.428Q597.803 535.39 598.097 534.366Q598.39 533.341 598.734 532.332Q599.078 531.323 599.471 530.333Q599.864 529.342 600.306 528.372Q600.747 527.402 601.236 526.455Q601.724 525.508 602.259 524.586Q602.794 523.664 603.374 522.769Q603.953 521.875 604.576 521.01C611.007 512.152 621.663 506.293 632.386 504.662Z"/>
		<path fill="#D21E24" transform="scale(1.68637 1.68637)" d="M634.317 511.64C641.617 510.742 649.09 512.177 655.339 516.109C663.097 520.99 669.241 529.603 671.199 538.565Q671.399 539.449 671.555 540.343Q671.711 541.236 671.822 542.136Q671.933 543.036 671.999 543.94Q672.065 544.844 672.085 545.751Q672.106 546.657 672.081 547.564Q672.056 548.47 671.986 549.374Q671.916 550.278 671.8 551.178Q671.685 552.077 671.525 552.969Q671.364 553.862 671.16 554.745Q670.955 555.629 670.706 556.501Q670.458 557.373 670.166 558.231Q669.874 559.09 669.539 559.932Q669.204 560.775 668.828 561.6Q668.452 562.425 668.035 563.23Q667.617 564.035 667.161 564.818Q666.704 565.602 666.208 566.361C660.38 575.148 651.907 579.276 641.816 581.276C633.777 582.02 625.692 580.108 619.096 575.371C611.209 569.709 605.164 559.975 603.739 550.357C602.425 541.488 604.964 532.329 610.292 525.165C616.219 517.196 624.672 513.13 634.317 511.64Z"/>
		<path fill="#232226" transform="scale(1.68637 1.68637)" d="M635.86 516.15C642.706 515.612 649.045 516.752 654.797 520.74Q655.427 521.181 656.034 521.653Q656.641 522.125 657.224 522.627Q657.807 523.128 658.364 523.659Q658.921 524.189 659.451 524.747Q659.98 525.304 660.481 525.888Q660.982 526.471 661.453 527.079Q661.925 527.686 662.365 528.317Q662.805 528.948 663.213 529.6Q663.621 530.251 663.996 530.923Q664.371 531.594 664.711 532.284Q665.052 532.973 665.358 533.679Q665.664 534.385 665.934 535.105Q666.204 535.825 666.438 536.557Q666.671 537.29 666.868 538.033Q667.064 538.777 667.224 539.529Q667.383 540.282 667.504 541.041C668.844 549.163 666.919 557.853 661.974 564.477C656.814 571.391 649.415 574.9 641.08 576.157C633.958 576.621 626.819 575.037 620.984 570.791C614.403 566.001 609.79 558.044 608.577 550.023C607.401 542.251 609.902 534.009 614.608 527.783C619.927 520.746 627.297 517.402 635.86 516.15Z"/>
		<path fill="#FDFDFD" transform="scale(1.68637 1.68637)" d="M635.138 526.586C640.367 526.417 645.023 526.762 649.507 529.815C653.999 532.873 656.673 537.795 657.673 543.058C658.738 548.665 657.794 554.496 654.453 559.192C650.939 564.13 645.833 566.675 639.992 567.708C635.493 567.873 631.456 567.281 627.489 565.029Q627.019 564.757 626.564 564.462Q626.108 564.167 625.669 563.849Q625.229 563.531 624.805 563.192Q624.382 562.852 623.976 562.492Q623.57 562.131 623.183 561.751Q622.796 561.371 622.429 560.971Q622.062 560.572 621.715 560.154Q621.368 559.737 621.043 559.302Q620.718 558.868 620.415 558.417Q620.112 557.967 619.832 557.502Q619.552 557.037 619.296 556.559Q619.04 556.08 618.809 555.589Q618.577 555.099 618.371 554.597Q618.164 554.095 617.983 553.583Q617.802 553.071 617.647 552.551Q617.492 552.031 617.364 551.504Q617.242 551.021 617.145 550.533Q617.047 550.044 616.976 549.552Q616.904 549.059 616.857 548.563Q616.81 548.067 616.789 547.57Q616.768 547.072 616.773 546.574Q616.777 546.076 616.807 545.579Q616.837 545.082 616.893 544.587Q616.948 544.092 617.029 543.601Q617.11 543.109 617.216 542.623Q617.321 542.136 617.452 541.656Q617.583 541.175 617.738 540.702Q617.893 540.229 618.073 539.764Q618.252 539.3 618.455 538.845Q618.658 538.39 618.884 537.946Q619.11 537.502 619.358 537.071Q619.607 536.639 619.877 536.221C623.532 530.512 628.762 528.021 635.138 526.586Z"/>
		<path fill="#232226" transform="scale(1.68637 1.68637)" d="M636.816 533.177C639.09 533.287 641.248 533.597 643.296 534.656Q643.929 534.983 644.524 535.375Q645.12 535.766 645.672 536.217Q646.223 536.668 646.725 537.173Q647.227 537.679 647.674 538.234Q648.121 538.789 648.508 539.387Q648.895 539.986 649.217 540.621Q649.54 541.256 649.795 541.922Q650.05 542.587 650.235 543.275C651.278 547.014 650.818 550.993 648.812 554.333C646.299 558.518 642.747 560.09 638.218 561.111C634.919 560.855 632.169 560.247 629.396 558.35Q628.806 557.953 628.259 557.497Q627.713 557.04 627.217 556.53Q626.721 556.02 626.28 555.461Q625.84 554.903 625.459 554.302Q625.078 553.7 624.762 553.063Q624.446 552.426 624.197 551.759Q623.948 551.092 623.77 550.403Q623.591 549.715 623.485 549.011Q623.383 548.311 623.352 547.604Q623.322 546.897 623.363 546.191Q623.405 545.484 623.518 544.786Q623.631 544.087 623.815 543.404Q623.999 542.721 624.251 542.059Q624.503 541.398 624.821 540.766Q625.14 540.134 625.521 539.538Q625.901 538.942 626.341 538.387C629.124 534.938 632.551 533.707 636.816 533.177Z"/>
		<path fill="#D21E24" transform="scale(1.68637 1.68637)" d="M637.213 538.56C638.764 538.562 640.146 538.831 641.514 539.583C643.621 540.74 645.24 542.518 645.857 544.875Q645.974 545.326 646.043 545.786Q646.113 546.247 646.135 546.712Q646.157 547.177 646.132 547.642Q646.106 548.107 646.033 548.567Q645.96 549.026 645.84 549.476Q645.72 549.926 645.555 550.361Q645.389 550.797 645.18 551.213Q644.971 551.629 644.72 552.021C643.014 554.671 640.81 555.477 637.879 556.235C636.335 556.112 634.8 555.87 633.419 555.129C631.339 554.015 629.667 552.266 629.004 549.965C628.375 547.778 628.752 545.373 629.935 543.438C631.633 540.661 634.146 539.315 637.213 538.56Z"/>
		<path fill="#232226" transform="scale(1.68637 1.68637)" d="M636.543 541.912C638.542 541.984 640.058 542.122 641.481 543.729C642.415 544.784 642.69 545.961 642.518 547.328C642.219 549.704 640.891 550.755 639.123 552.151C637.143 552.159 635.521 551.994 634.092 550.462C633.296 549.609 632.976 548.64 633.031 547.485C633.157 544.846 634.697 543.556 636.543 541.912Z"/>
		<path fill="#FDFDFD" transform="scale(1.68637 1.68637)" d="M262.438 551.921C273.424 551.377 284.665 551.803 295.675 551.839C296.303 557.702 296.451 563.651 296.948 569.533L262.146 569.379C262.136 563.557 262.056 557.734 262.438 551.921Z"/>
		<path fill="#FDFDFD" transform="scale(1.68637 1.68637)" d="M691.253 553.943C707.041 553.878 722.922 554.786 738.705 555.297C751.21 555.703 764.022 555.514 776.451 556.916C772.86 557.712 769.001 557.687 765.327 557.874C756.26 558.14 747.133 559.364 738.123 560.395L687.679 566.588Q689.639 560.314 691.253 553.943Z"/>
		<path fill="#FDFDFD" transform="scale(1.68637 1.68637)" d="M695.679 525.676C709.971 524.79 725.182 526.227 739.476 527.131C751.371 527.882 763.296 528.295 775.181 529.135C771.394 529.657 767.697 529.967 763.875 530.066C747.022 530.689 730.28 533.45 713.555 535.519C706.709 536.365 699.822 537.4 692.921 537.597C694.397 533.659 695.041 529.814 695.679 525.676Z"/>
		<path fill="#FDFDFD" transform="scale(1.68637 1.68637)" d="M439.691 522.685C439.566 518.237 438.845 512.836 440.134 508.599C440.878 507.759 441.675 507.469 442.735 507.187C446.88 506.086 453.392 505.67 457.161 507.839C459.426 511.286 458.55 518.17 458.555 522.221C463.973 522.294 469.387 522.146 474.722 523.206C473.664 521.827 470.574 521.505 468.938 521.15C471.499 517.462 475.923 511.192 480.486 510.057C482.508 509.554 484.545 511.148 486.245 512.132C485.465 515.867 484.717 519.687 481.236 521.861C479.581 522.894 477.396 523.248 475.513 523.65C467.675 526.322 453.944 523.961 445.418 523.337C443.549 522.997 441.583 522.891 439.691 522.685Z"/>
		<path fill="#232226" transform="scale(1.68637 1.68637)" d="M444.224 507.826C444.515 508.096 444.625 508.15 444.806 508.535C445.897 510.853 445.7 517.825 444.762 520.288C444.309 521.478 443.417 521.647 442.357 522.178C442.212 521.982 442.05 521.794 441.94 521.576C440.786 519.292 440.976 512.841 441.768 510.302C442.228 508.826 443.017 508.582 444.224 507.826Z"/>
		<path fill="#FDFDFD" transform="scale(1.68637 1.68637)" d="M700.402 498.491C718.476 498.444 736.755 500.167 754.802 501.161C761.409 501.524 770.975 500.729 777.208 502.495C773.85 503.103 770.285 502.994 766.875 503.062C753.306 503.762 740.084 505.262 726.65 507.226C717.054 508.63 707.325 510.527 697.64 511.11C698.298 506.887 699.456 502.662 700.402 498.491Z"/>
		<path fill="#FDFDFD" transform="scale(1.68637 1.68637)" d="M704.612 472.519C711.891 472.757 776.626 475.078 778.958 476.231L771.299 476.923C748.254 477.967 725.824 481.428 702.917 483.605Q703.727 478.056 704.612 472.519Z"/>
	</g>
	<g>
		<path fill="#FDFDFD" transform="scale(1.68637 1.68637)" d="M0 0L1024 0L1024 1024L0 1024L0 0ZM517.441 926.168L796.209 926.454C808.703 926.475 821.586 927.096 834.018 925.917C857.209 923.718 878.313 912.854 894.66 896.432Q895.933 895.16 897.157 893.842Q898.381 892.524 899.556 891.161Q900.73 889.798 901.853 888.392Q902.976 886.987 904.045 885.54Q905.115 884.094 906.13 882.608Q907.145 881.123 908.103 879.6Q909.062 878.078 909.964 876.521Q910.865 874.964 911.708 873.375Q912.551 871.785 913.334 870.165Q914.117 868.546 914.839 866.898Q915.561 865.25 916.221 863.577Q916.881 861.903 917.479 860.206Q918.076 858.509 918.61 856.791Q919.143 855.073 919.613 853.336Q920.082 851.599 920.486 849.846Q920.89 848.093 921.229 846.326C924.202 831.348 923.153 815.283 923.154 800.052L923.144 739.447L923.089 511.102L922.99 283.418L922.912 219.584C922.857 206.772 923.601 192.976 921.504 180.322C918.595 162.777 911.083 151.421 902.707 136.458C883.817 115.829 861.695 102.453 833.178 101.205C815.028 100.41 796.613 100.979 778.439 100.956L679.837 100.878L419.63 100.87L265.134 100.623L218.807 100.563C207.641 100.559 196.297 100.111 185.211 101.658C165.919 104.351 146.974 113.781 132.745 126.999Q131.845 127.833 130.966 128.689Q130.087 129.544 129.23 130.422Q128.372 131.299 127.537 132.197Q126.701 133.096 125.888 134.014Q125.075 134.933 124.285 135.872Q123.495 136.81 122.729 137.768Q121.962 138.726 121.22 139.703Q120.477 140.679 119.759 141.674Q119.041 142.669 118.348 143.681Q117.654 144.693 116.986 145.722Q116.318 146.751 115.676 147.796Q115.034 148.841 114.418 149.902Q113.801 150.963 113.212 152.039Q112.622 153.115 112.059 154.205Q111.496 155.295 110.96 156.398Q110.425 157.502 109.916 158.619Q109.408 159.735 108.928 160.864Q108.447 161.993 107.995 163.133Q107.543 164.273 107.119 165.425Q106.695 166.576 106.3 167.737Q105.904 168.899 105.538 170.07Q105.172 171.24 104.834 172.42Q104.497 173.599 104.189 174.787Q103.881 175.974 103.603 177.169Q103.324 178.364 103.075 179.565Q102.827 180.767 102.608 181.974Q102.389 183.181 102.2 184.393Q102.011 185.605 101.852 186.822Q101.693 188.038 101.565 189.258Q101.436 190.478 101.337 191.701Q101.239 192.924 101.171 194.149Q101.103 195.374 101.065 196.6C100.482 212.932 101.002 229.451 101.02 245.801L101.339 348.94L101.364 622.463L101.443 768.936L101.49 808.436C101.486 818.561 101.01 828.894 102.485 838.935Q102.78 840.902 103.151 842.856Q103.521 844.809 103.965 846.748Q104.41 848.686 104.928 850.606Q105.446 852.526 106.037 854.425Q106.628 856.324 107.291 858.199Q107.954 860.074 108.687 861.922Q109.421 863.771 110.225 865.59Q111.029 867.409 111.902 869.195Q112.775 870.982 113.715 872.735Q114.655 874.487 115.662 876.202Q116.668 877.918 117.739 879.593Q118.811 881.269 119.945 882.902Q121.079 884.536 122.275 886.125Q123.471 887.714 124.726 889.256Q125.982 890.798 127.295 892.292Q128.609 893.785 129.978 895.227C133.351 898.82 136.797 902.396 140.468 905.686L140.904 905.898C144.485 907.678 147.773 910.015 151.237 912.012C160.697 917.466 171.01 922.308 181.831 924.25C196.938 926.96 212.87 926.019 228.172 926.019L291.984 925.993L517.441 926.168Z"/>
		<path fill="#C3C3C3" transform="scale(1.68637 1.68637)" d="M902.707 136.458C906.138 138.071 930.516 163.322 934.085 167.734L933.769 168.096L929.742 163.835L929.443 163.837C929.491 172.073 934.159 180.169 936.128 188.085C938.345 196.996 938.378 207.069 938.505 216.202C938.686 229.224 938.004 242.329 937.746 255.343C937.448 270.368 937.47 285.472 937.33 300.504L936.209 465.051C936.199 481.607 936.885 498.123 936.758 514.679L936.219 580.75C936.162 586.77 935.686 592.782 935.739 598.801C935.952 623.14 937.344 647.49 937.725 671.829C937.947 686.01 937.352 700.106 937.219 714.267C937.13 723.783 937.564 733.327 937.317 742.834C937.247 745.509 936.752 748.15 936.681 750.814C936.553 755.623 937.359 760.468 937.348 765.293C937.292 788.328 936.779 811.432 937.444 834.467C937.803 846.885 940.062 863.351 938.281 875.114C936.065 889.741 926.189 905.656 915.976 916.076C901.34 931.007 881.198 944.53 859.591 944.618L386.487 942.737C374.972 942.622 363.485 943.236 351.97 943.249C326.992 943.275 301.968 942.899 276.997 943.273C260.126 943.526 243.309 943.779 226.427 943.759C217.972 943.748 209.187 944.181 200.777 943.254C193.771 942.481 187.328 939.69 180.503 938.553C177.234 938.008 173.217 935.361 170.073 934.107L169.682 934.412C171.339 936.075 173.036 937.656 174.788 939.219L174.636 939.563L173.827 938.668L173.777 938.886C167.295 933.266 161.592 926.8 155.497 920.769C151.233 916.55 143.64 910.48 140.468 905.686L140.904 905.898C144.485 907.678 147.773 910.015 151.237 912.012C160.697 917.466 171.01 922.308 181.831 924.25C196.938 926.96 212.87 926.019 228.172 926.019L291.984 925.993L517.441 926.168L796.209 926.454C808.703 926.475 821.586 927.096 834.018 925.917C857.209 923.718 878.313 912.854 894.66 896.432Q895.933 895.16 897.157 893.842Q898.381 892.524 899.556 891.161Q900.73 889.798 901.853 888.392Q902.976 886.987 904.045 885.54Q905.115 884.094 906.13 882.608Q907.145 881.123 908.103 879.6Q909.062 878.078 909.964 876.521Q910.865 874.964 911.708 873.375Q912.551 871.785 913.334 870.165Q914.117 868.546 914.839 866.898Q915.561 865.25 916.221 863.577Q916.881 861.903 917.479 860.206Q918.076 858.509 918.61 856.791Q919.143 855.073 919.613 853.336Q920.082 851.599 920.486 849.846Q920.89 848.093 921.229 846.326C924.202 831.348 923.153 815.283 923.154 800.052L923.144 739.447L923.089 511.102L922.99 283.418L922.912 219.584C922.857 206.772 923.601 192.976 921.504 180.322C918.595 162.777 911.083 151.421 902.707 136.458Z"/>
	</g>
</svg>
